<?xml version="1.0" encoding="UTF-8"?>
<svg width="18" height="18" viewBox="0 0 18 18" fill="none" xmlns="http://www.w3.org/2000/svg">
    <title>settings_icon</title>
    <path fill-rule="evenodd" clip-rule="evenodd" d="M9.0501 2.30872C8.86334 2.30872 8.68423 2.38291 8.55218 2.51497C8.42012 2.64703 8.34593 2.82613 8.34593 3.01289V3.13541C8.34448 3.49933 8.23664 3.85488 8.0357 4.1583C7.83476 4.46172 7.54949 4.69976 7.21499 4.84312C7.15545 4.86864 7.09281 4.88576 7.02886 4.89412C6.72492 5.00055 6.39773 5.02679 6.07922 4.96904C5.71235 4.90252 5.37382 4.72762 5.10728 4.4669L5.10173 4.46147L5.05951 4.41919C4.99411 4.35372 4.91617 4.3015 4.83069 4.26606C4.7452 4.23063 4.65357 4.21239 4.56104 4.21239C4.4685 4.21239 4.37687 4.23063 4.29138 4.26606C4.2059 4.3015 4.12824 4.35344 4.06284 4.41891L4.06228 4.41946C3.99681 4.48486 3.94487 4.56252 3.90944 4.64801C3.874 4.73349 3.85576 4.82512 3.85576 4.91766C3.85576 5.0102 3.874 5.10183 3.90944 5.18731C3.94487 5.2728 3.99681 5.35046 4.06228 5.41586L4.1103 5.46388C4.37102 5.73042 4.54589 6.06898 4.61241 6.43585C4.67761 6.79541 4.63577 7.16604 4.49234 7.5018C4.36168 7.84441 4.13289 8.1411 3.83437 8.35461C3.52981 8.57244 3.16677 8.69361 2.79244 8.70236L2.77597 8.70256H2.7126C2.52584 8.70256 2.34673 8.77675 2.21468 8.9088C2.08262 9.04086 2.00843 9.21997 2.00843 9.40672C2.00843 9.59348 2.08262 9.77259 2.21468 9.90464C2.34673 10.0367 2.52584 10.1109 2.7126 10.1109H2.83511C3.19903 10.1123 3.55459 10.2202 3.85801 10.4211C4.16037 10.6214 4.39781 10.9054 4.54133 11.2383C4.69066 11.5786 4.73504 11.9556 4.66875 12.3213C4.60222 12.6881 4.42733 13.0267 4.1666 13.2932L4.16117 13.2988L4.11889 13.341C4.05342 13.4064 4.00121 13.4843 3.96577 13.5698C3.93033 13.6553 3.91209 13.7469 3.91209 13.8395C3.91209 13.932 3.93033 14.0236 3.96577 14.1091C4.00121 14.1946 4.05315 14.2723 4.11862 14.3377L4.11917 14.3382C4.18457 14.4037 4.26223 14.4556 4.34771 14.4911C4.4332 14.5265 4.52483 14.5447 4.61737 14.5447C4.70991 14.5447 4.80154 14.5265 4.88702 14.4911C4.97251 14.4556 5.05017 14.4037 5.11557 14.3382L5.16359 14.2902C5.43012 14.0295 5.76868 13.8546 6.13555 13.7881C6.49512 13.7229 6.86574 13.7647 7.2015 13.9081C7.54411 14.0388 7.84081 14.2676 8.05432 14.5661C8.27215 14.8707 8.39332 15.2337 8.40207 15.608L8.40226 15.6245V15.6879C8.40226 15.8746 8.47645 16.0538 8.60851 16.1858C8.74057 16.3179 8.91967 16.3921 9.10643 16.3921C9.29319 16.3921 9.47229 16.3179 9.60435 16.1858C9.73641 16.0538 9.8106 15.8746 9.8106 15.6879V15.5682L9.8106 15.5654C9.81205 15.2015 9.91989 14.8459 10.1208 14.5425C10.3211 14.2401 10.6051 14.0026 10.9381 13.8591C11.2783 13.7098 11.6554 13.6655 12.021 13.7317C12.3878 13.7983 12.7264 13.9732 12.9929 14.2339L12.9985 14.2393L13.0407 14.2816C13.1061 14.3471 13.184 14.3993 13.2695 14.4347C13.355 14.4702 13.4466 14.4884 13.5392 14.4884C13.6317 14.4884 13.7233 14.4702 13.8088 14.4347C13.8943 14.3993 13.972 14.3473 14.0374 14.2819L14.0379 14.2813C14.1034 14.2159 14.1553 14.1383 14.1908 14.0528C14.2262 13.9673 14.2444 13.8757 14.2444 13.7831C14.2444 13.6906 14.2262 13.599 14.1908 13.5135C14.1553 13.428 14.1034 13.3503 14.0379 13.2849L13.9899 13.2369C13.7292 12.9704 13.5543 12.6318 13.4878 12.2649C13.4215 11.8993 13.4659 11.5223 13.6152 11.1821C13.7587 10.8491 13.9961 10.565 14.2985 10.3648C14.6019 10.1638 14.9575 10.056 15.3214 10.0546L15.3242 10.0546L15.3876 10.0546C15.5744 10.0546 15.7535 9.98037 15.8855 9.84831C16.0176 9.71625 16.0918 9.53715 16.0918 9.35039C16.0918 9.16363 16.0176 8.98453 15.8855 8.85247C15.7535 8.72041 15.5744 8.64622 15.3876 8.64622H15.2679L15.2651 8.64622C14.9012 8.64477 14.5456 8.53693 14.2422 8.33599C13.9388 8.13506 13.7007 7.84978 13.5574 7.51528C13.5319 7.45574 13.5147 7.3931 13.5064 7.32916C13.3999 7.02521 13.3737 6.69802 13.4315 6.37951C13.498 6.01264 13.6729 5.67411 13.9336 5.40757L13.939 5.40202L13.9813 5.3598C14.0468 5.29441 14.099 5.21646 14.1344 5.13098C14.1699 5.0455 14.1881 4.95387 14.1881 4.86133C14.1881 4.76879 14.1699 4.67716 14.1344 4.59167C14.099 4.50619 14.047 4.42853 13.9816 4.36313L13.981 4.36258C13.9156 4.2971 13.838 4.24517 13.7525 4.20973C13.667 4.17429 13.5754 4.15605 13.4828 4.15605C13.3903 4.15605 13.2987 4.17429 13.2132 4.20973C13.1277 4.24517 13.05 4.29711 12.9846 4.36258L12.9366 4.4106C12.6701 4.67132 12.3315 4.84618 11.9646 4.9127C11.599 4.979 11.2219 4.93462 10.8817 4.78529C10.5487 4.64177 10.2647 4.40433 10.0645 4.10196C9.86355 3.79855 9.75572 3.44299 9.75427 3.07907L9.75426 3.07627V3.01289C9.75426 2.82613 9.68007 2.64703 9.54802 2.51497C9.41596 2.38291 9.23685 2.30872 9.0501 2.30872ZM14.2609 11.4629L14.9051 11.7472C14.8682 11.8309 14.8572 11.9237 14.8735 12.0137C14.8897 12.1027 14.9318 12.1849 14.9946 12.2499L15.0332 12.2885C15.0333 12.2886 15.0331 12.2884 15.0332 12.2885C15.2295 12.4847 15.3855 12.7178 15.4917 12.9742C15.598 13.2306 15.6528 13.5055 15.6528 13.7831C15.6528 14.0607 15.598 14.3356 15.4917 14.5921C15.3854 14.8485 15.2296 15.0815 15.0332 15.2777L14.5356 14.7795L15.0338 15.2772C14.8376 15.4736 14.6046 15.6294 14.3481 15.7357C14.0917 15.842 13.8168 15.8967 13.5392 15.8967C13.2615 15.8967 12.9867 15.842 12.7302 15.7357C12.4739 15.6294 12.241 15.4737 12.0448 15.2774C12.0447 15.2773 12.0449 15.2775 12.0448 15.2774L12.006 15.2385C11.9409 15.1758 11.8587 15.1336 11.7697 15.1175C11.6797 15.1012 11.5869 15.1122 11.5032 15.1491L11.4963 15.1522C11.4143 15.1873 11.3443 15.2457 11.295 15.3201C11.2459 15.3942 11.2195 15.481 11.2189 15.5699V15.6879C11.2189 16.2482 10.9964 16.7855 10.6002 17.1817C10.204 17.5778 9.6667 17.8004 9.10643 17.8004C8.54616 17.8004 8.00884 17.5778 7.61267 17.1817C7.2165 16.7855 6.99393 16.2482 6.99393 15.6879V15.6346C6.99059 15.5451 6.96102 15.4584 6.90883 15.3854C6.8554 15.3107 6.78073 15.2538 6.69453 15.2221C6.68061 15.217 6.66685 15.2114 6.65328 15.2054C6.56961 15.1685 6.4768 15.1575 6.38681 15.1738C6.2978 15.19 6.21559 15.2321 6.15055 15.2949L6.11196 15.3335C6.11187 15.3336 6.11205 15.3334 6.11196 15.3335C5.91582 15.5298 5.68266 15.6858 5.42633 15.792C5.16988 15.8983 4.89498 15.9531 4.61737 15.9531C4.33975 15.9531 4.06486 15.8983 3.80841 15.792C3.5522 15.6858 3.31941 15.5302 3.12333 15.334C2.92691 15.1379 2.7711 14.9049 2.66479 14.6484C2.55848 14.392 2.50376 14.1171 2.50376 13.8395C2.50376 13.5618 2.55848 13.2869 2.66479 13.0305C2.7711 12.774 2.92691 12.5411 3.12333 12.3449L3.16193 12.3063C3.22473 12.2412 3.26687 12.159 3.28301 12.07C3.29932 11.98 3.28831 11.8872 3.25138 11.8035L3.24833 11.7966C3.21317 11.7146 3.15482 11.6446 3.08039 11.5953C3.00626 11.5462 2.91944 11.5198 2.83054 11.5192H2.7126C2.15233 11.5192 1.615 11.2967 1.21883 10.9005C0.822664 10.5043 0.600098 9.96699 0.600098 9.40672C0.600098 8.84645 0.822664 8.30913 1.21883 7.91296C1.615 7.51679 2.15233 7.29422 2.7126 7.29422H2.76586C2.85543 7.29088 2.9421 7.26132 3.01507 7.20912C3.08978 7.15569 3.14668 7.08102 3.17838 6.99483C3.1835 6.9809 3.18906 6.96714 3.19505 6.95357C3.23197 6.8699 3.24299 6.77709 3.22667 6.68711C3.21053 6.5981 3.16839 6.51589 3.10559 6.45085L3.067 6.41225C2.87058 6.21606 2.71477 5.98308 2.60846 5.72662C2.50215 5.47017 2.44743 5.19528 2.44743 4.91766C2.44743 4.64005 2.50215 4.36515 2.60846 4.1087C2.71472 3.85237 2.87044 3.61948 3.06672 3.42334C3.26285 3.22706 3.49574 3.07134 3.75207 2.96508C4.00853 2.85877 4.28342 2.80405 4.56104 2.80405C4.83865 2.80405 5.11354 2.85877 5.37 2.96508C5.62645 3.07139 5.85943 3.22721 6.05563 3.42362L6.09422 3.46222C6.15927 3.52502 6.24147 3.56716 6.33048 3.5833C6.42047 3.59962 6.51328 3.5886 6.59695 3.55167C6.64204 3.53177 6.68897 3.51672 6.73696 3.50667C6.78606 3.47334 6.82844 3.43063 6.86151 3.38069C6.9106 3.30656 6.93704 3.21974 6.9376 3.13084V3.01289C6.9376 2.45262 7.16016 1.9153 7.55633 1.51913C7.95251 1.12296 8.48983 0.900391 9.0501 0.900391C9.61037 0.900391 10.1477 1.12296 10.5439 1.51913C10.94 1.9153 11.1626 2.45262 11.1626 3.01289V3.0745C11.1632 3.1634 11.1896 3.25022 11.2387 3.32435C11.288 3.39878 11.3579 3.45717 11.44 3.49233L11.4469 3.4953C11.5306 3.53223 11.6234 3.54328 11.7134 3.52697C11.8024 3.51083 11.8846 3.46869 11.9496 3.40589L11.9882 3.36729C12.1844 3.17087 12.4174 3.01506 12.6739 2.90875C12.9303 2.80244 13.2052 2.74772 13.4828 2.74772C13.7604 2.74772 14.0353 2.80244 14.2918 2.90875C14.5482 3.01506 14.7812 3.17088 14.9774 3.36729C15.1736 3.56337 15.3292 3.79615 15.4354 4.05237C15.5417 4.30882 15.5964 4.58371 15.5964 4.86133C15.5964 5.13894 15.5417 5.41384 15.4354 5.67029C15.3291 5.92662 15.1734 6.15951 14.9771 6.35564C14.9771 6.35574 14.9772 6.35555 14.9771 6.35564L14.9383 6.39452C14.8755 6.45956 14.8333 6.54177 14.8172 6.63077C14.8009 6.72076 14.8119 6.81357 14.8488 6.89724C14.8687 6.94233 14.8838 6.98927 14.8938 7.03725C14.9271 7.08635 14.9699 7.12873 15.0198 7.1618C15.0939 7.2109 15.1808 7.23733 15.2696 7.23789H15.3876C15.9479 7.23789 16.4852 7.46046 16.8814 7.85663C17.2775 8.2528 17.5001 8.79012 17.5001 9.35039C17.5001 9.91066 17.2775 10.448 16.8814 10.8442C16.4852 11.2403 15.9479 11.4629 15.3876 11.4629H15.326C15.2371 11.4634 15.1503 11.4899 15.0761 11.539C15.0017 11.5883 14.9433 11.6582 14.9082 11.7403L14.2609 11.4629Z" fill="#A2A3AE" stroke="#A2A3AE" stroke-width="0.2" stroke-linecap="round" stroke-linejoin="round"/>
</svg>
