<?xml version="1.0" encoding="UTF-8"?>
<svg width="50" height="50" viewBox="0 0 50 50" fill="none" xmlns="http://www.w3.org/2000/svg">
    <title>settings</title>
    <mask id="path-1-inside-1" fill="white">
    <path d="M38.4644 21.8508L36.3587 21.4936C36.1394 20.7855 35.8574 20.1024 35.5127 19.4506L36.7535 17.7146C37.28 16.9751 37.1985 15.9662 36.553 15.3269L34.6855 13.4594C34.3345 13.1084 33.8708 12.9141 33.3757 12.9141C32.9871 12.9141 32.6174 13.0332 32.304 13.2588L30.5618 14.4997C29.885 14.1425 29.1768 13.8479 28.4436 13.6286L28.0926 11.5479C27.9422 10.6518 27.1714 10 26.2627 10H23.6243C22.7156 10 21.9448 10.6518 21.7944 11.5479L21.4309 13.6787C20.729 13.8981 20.0459 14.1863 19.3941 14.5373L17.6707 13.2964C17.3574 13.0708 16.9814 12.9517 16.5928 12.9517C16.0977 12.9517 15.6277 13.146 15.283 13.497L13.4092 15.3645C12.77 16.0038 12.6822 17.0127 13.2087 17.7522L14.4621 19.5133C14.1174 20.1713 13.8416 20.8544 13.6286 21.5626L11.5479 21.9135C10.6518 22.0639 10 22.8348 10 23.7435V26.3819C10 27.2906 10.6518 28.0614 11.5479 28.2118L13.6787 28.5753C13.898 29.2772 14.1863 29.9603 14.5373 30.6121L13.3027 32.3292C12.7763 33.0687 12.8577 34.0777 13.5032 34.7169L15.3708 36.5845C15.7217 36.9354 16.1855 37.1297 16.6806 37.1297C17.0691 37.1297 17.4389 37.0107 17.7522 36.785L19.5132 35.5316C20.1462 35.8638 20.8105 36.1333 21.4936 36.3464L21.8445 38.4521C21.9949 39.3482 22.7657 40 23.6745 40H26.3191C27.2278 40 27.9986 39.3482 28.149 38.4521L28.5063 36.3464C29.2144 36.127 29.8975 35.845 30.5493 35.5003L32.2852 36.7412C32.5986 36.9668 32.9746 37.0859 33.3631 37.0859C33.8582 37.0859 34.322 36.8916 34.6729 36.5406L36.5405 34.6731C37.1797 34.0338 37.2674 33.0249 36.741 32.2854L35.5002 30.5431C35.8448 29.8851 36.1331 29.202 36.3462 28.5001L38.4519 28.1492C39.3481 27.9987 39.9998 27.2279 39.9998 26.3192V23.6808C40.0124 22.7721 39.3606 22.0013 38.4644 21.8508ZM38.3203 26.3192C38.3203 26.4007 38.2639 26.4696 38.1824 26.4821L35.5503 26.9208C35.2182 26.9772 34.9549 27.2216 34.8735 27.5413C34.6353 28.4625 34.2718 29.3461 33.783 30.1671C33.6138 30.4554 33.6263 30.8126 33.8206 31.0884L35.3686 33.2693C35.4124 33.3319 35.4062 33.4259 35.3498 33.4823L33.4822 35.3499C33.4383 35.3938 33.3945 35.4 33.3631 35.4C33.3255 35.4 33.2942 35.3875 33.2691 35.3687L31.0945 33.8208C30.825 33.6265 30.4615 33.614 30.1733 33.7832C29.3523 34.272 28.4687 34.6355 27.5474 34.8736C27.2215 34.9551 26.9771 35.2246 26.927 35.5504L26.482 38.1826C26.4695 38.264 26.4006 38.3205 26.3191 38.3205H23.6807C23.5993 38.3205 23.5303 38.264 23.5178 38.1826L23.0791 35.5504C23.0227 35.2183 22.7783 34.9551 22.4587 34.8736C21.5625 34.6417 20.6977 34.2845 19.8892 33.8208C19.7576 33.7456 19.6072 33.708 19.4631 33.708C19.2939 33.708 19.1184 33.7581 18.9743 33.8646L16.7808 35.4251C16.7495 35.4439 16.7182 35.4564 16.6868 35.4564C16.6618 35.4564 16.6116 35.4502 16.5677 35.4063L14.7002 33.5388C14.6438 33.4823 14.6375 33.3946 14.6814 33.3257L16.2231 31.1636C16.4173 30.8878 16.4299 30.5243 16.2607 30.2361C15.7718 29.4213 15.3958 28.5377 15.1577 27.6165C15.07 27.2968 14.8067 27.0524 14.4809 26.996L11.8299 26.5448C11.7485 26.5323 11.6921 26.4633 11.6921 26.3819V23.7435C11.6921 23.662 11.7485 23.5931 11.8299 23.5805L14.4433 23.1418C14.7754 23.0854 15.0449 22.841 15.1264 22.5151C15.3582 21.5939 15.7154 20.704 16.198 19.883C16.3672 19.5947 16.3484 19.2375 16.1541 18.968L14.5937 16.7746C14.5498 16.7119 14.5561 16.6179 14.6125 16.5615L16.48 14.694C16.5239 14.6501 16.5677 14.6438 16.5991 14.6438C16.6367 14.6438 16.668 14.6564 16.6931 14.6752L18.8552 16.2168C19.1309 16.4111 19.4944 16.4236 19.7827 16.2544C20.5974 15.7656 21.481 15.3896 22.4023 15.1515C22.7219 15.0637 22.9663 14.8005 23.0227 14.4746L23.4739 11.8237C23.4864 11.7422 23.5554 11.6858 23.6369 11.6858H26.2752C26.3567 11.6858 26.4256 11.7422 26.4382 11.8237L26.8769 14.437C26.9333 14.7692 27.1777 15.0386 27.5036 15.1201C28.4499 15.3583 29.3523 15.728 30.1921 16.2231C30.4803 16.3923 30.8376 16.3798 31.1133 16.1855L33.2754 14.6313C33.3067 14.6125 33.3381 14.6 33.3694 14.6C33.3945 14.6 33.4446 14.6062 33.4885 14.6501L35.356 16.5177C35.4124 16.5741 35.4187 16.6618 35.3748 16.7307L33.8269 18.9054C33.6326 19.1748 33.6201 19.5383 33.7893 19.8266C34.2781 20.6476 34.6416 21.5312 34.8797 22.4525C34.9612 22.7784 35.2307 23.0228 35.5566 23.0729L38.1887 23.5179C38.2701 23.5304 38.3266 23.5993 38.3266 23.6808V26.3192H38.3203V26.3192Z"/>
    </mask>
    <path d="M38.4644 21.8508L36.3587 21.4936C36.1394 20.7855 35.8574 20.1024 35.5127 19.4506L36.7535 17.7146C37.28 16.9751 37.1985 15.9662 36.553 15.3269L34.6855 13.4594C34.3345 13.1084 33.8708 12.9141 33.3757 12.9141C32.9871 12.9141 32.6174 13.0332 32.304 13.2588L30.5618 14.4997C29.885 14.1425 29.1768 13.8479 28.4436 13.6286L28.0926 11.5479C27.9422 10.6518 27.1714 10 26.2627 10H23.6243C22.7156 10 21.9448 10.6518 21.7944 11.5479L21.4309 13.6787C20.729 13.8981 20.0459 14.1863 19.3941 14.5373L17.6707 13.2964C17.3574 13.0708 16.9814 12.9517 16.5928 12.9517C16.0977 12.9517 15.6277 13.146 15.283 13.497L13.4092 15.3645C12.77 16.0038 12.6822 17.0127 13.2087 17.7522L14.4621 19.5133C14.1174 20.1713 13.8416 20.8544 13.6286 21.5626L11.5479 21.9135C10.6518 22.0639 10 22.8348 10 23.7435V26.3819C10 27.2906 10.6518 28.0614 11.5479 28.2118L13.6787 28.5753C13.898 29.2772 14.1863 29.9603 14.5373 30.6121L13.3027 32.3292C12.7763 33.0687 12.8577 34.0777 13.5032 34.7169L15.3708 36.5845C15.7217 36.9354 16.1855 37.1297 16.6806 37.1297C17.0691 37.1297 17.4389 37.0107 17.7522 36.785L19.5132 35.5316C20.1462 35.8638 20.8105 36.1333 21.4936 36.3464L21.8445 38.4521C21.9949 39.3482 22.7657 40 23.6745 40H26.3191C27.2278 40 27.9986 39.3482 28.149 38.4521L28.5063 36.3464C29.2144 36.127 29.8975 35.845 30.5493 35.5003L32.2852 36.7412C32.5986 36.9668 32.9746 37.0859 33.3631 37.0859C33.8582 37.0859 34.322 36.8916 34.6729 36.5406L36.5405 34.6731C37.1797 34.0338 37.2674 33.0249 36.741 32.2854L35.5002 30.5431C35.8448 29.8851 36.1331 29.202 36.3462 28.5001L38.4519 28.1492C39.3481 27.9987 39.9998 27.2279 39.9998 26.3192V23.6808C40.0124 22.7721 39.3606 22.0013 38.4644 21.8508ZM38.3203 26.3192C38.3203 26.4007 38.2639 26.4696 38.1824 26.4821L35.5503 26.9208C35.2182 26.9772 34.9549 27.2216 34.8735 27.5413C34.6353 28.4625 34.2718 29.3461 33.783 30.1671C33.6138 30.4554 33.6263 30.8126 33.8206 31.0884L35.3686 33.2693C35.4124 33.3319 35.4062 33.4259 35.3498 33.4823L33.4822 35.3499C33.4383 35.3938 33.3945 35.4 33.3631 35.4C33.3255 35.4 33.2942 35.3875 33.2691 35.3687L31.0945 33.8208C30.825 33.6265 30.4615 33.614 30.1733 33.7832C29.3523 34.272 28.4687 34.6355 27.5474 34.8736C27.2215 34.9551 26.9771 35.2246 26.927 35.5504L26.482 38.1826C26.4695 38.264 26.4006 38.3205 26.3191 38.3205H23.6807C23.5993 38.3205 23.5303 38.264 23.5178 38.1826L23.0791 35.5504C23.0227 35.2183 22.7783 34.9551 22.4587 34.8736C21.5625 34.6417 20.6977 34.2845 19.8892 33.8208C19.7576 33.7456 19.6072 33.708 19.4631 33.708C19.2939 33.708 19.1184 33.7581 18.9743 33.8646L16.7808 35.4251C16.7495 35.4439 16.7182 35.4564 16.6868 35.4564C16.6618 35.4564 16.6116 35.4502 16.5677 35.4063L14.7002 33.5388C14.6438 33.4823 14.6375 33.3946 14.6814 33.3257L16.2231 31.1636C16.4173 30.8878 16.4299 30.5243 16.2607 30.2361C15.7718 29.4213 15.3958 28.5377 15.1577 27.6165C15.07 27.2968 14.8067 27.0524 14.4809 26.996L11.8299 26.5448C11.7485 26.5323 11.6921 26.4633 11.6921 26.3819V23.7435C11.6921 23.662 11.7485 23.5931 11.8299 23.5805L14.4433 23.1418C14.7754 23.0854 15.0449 22.841 15.1264 22.5151C15.3582 21.5939 15.7154 20.704 16.198 19.883C16.3672 19.5947 16.3484 19.2375 16.1541 18.968L14.5937 16.7746C14.5498 16.7119 14.5561 16.6179 14.6125 16.5615L16.48 14.694C16.5239 14.6501 16.5677 14.6438 16.5991 14.6438C16.6367 14.6438 16.668 14.6564 16.6931 14.6752L18.8552 16.2168C19.1309 16.4111 19.4944 16.4236 19.7827 16.2544C20.5974 15.7656 21.481 15.3896 22.4023 15.1515C22.7219 15.0637 22.9663 14.8005 23.0227 14.4746L23.4739 11.8237C23.4864 11.7422 23.5554 11.6858 23.6369 11.6858H26.2752C26.3567 11.6858 26.4256 11.7422 26.4382 11.8237L26.8769 14.437C26.9333 14.7692 27.1777 15.0386 27.5036 15.1201C28.4499 15.3583 29.3523 15.728 30.1921 16.2231C30.4803 16.3923 30.8376 16.3798 31.1133 16.1855L33.2754 14.6313C33.3067 14.6125 33.3381 14.6 33.3694 14.6C33.3945 14.6 33.4446 14.6062 33.4885 14.6501L35.356 16.5177C35.4124 16.5741 35.4187 16.6618 35.3748 16.7307L33.8269 18.9054C33.6326 19.1748 33.6201 19.5383 33.7893 19.8266C34.2781 20.6476 34.6416 21.5312 34.8797 22.4525C34.9612 22.7784 35.2307 23.0228 35.5566 23.0729L38.1887 23.5179C38.2701 23.5304 38.3266 23.5993 38.3266 23.6808V26.3192H38.3203V26.3192Z" fill="#123652" stroke="#123652" mask="url(#path-1-inside-1)"/>
    <path d="M18.7793 24.9968C18.7793 21.5627 21.569 18.773 25.003 18.773C28.4371 18.773 31.2268 21.5627 31.2268 24.9968C31.2268 28.4309 28.4371 31.2206 25.003 31.2206C21.569 31.2206 18.7793 28.4309 18.7793 24.9968ZM19.9714 24.9968C19.9714 27.7733 22.2266 30.0285 25.003 30.0285C27.7795 30.0285 30.0347 27.7733 30.0347 24.9968C30.0347 22.2203 27.7795 19.9651 25.003 19.9651C22.2266 19.9651 19.9714 22.2203 19.9714 24.9968Z" fill="#123652" stroke="#123652" stroke-width="0.5"/>
    <circle cx="25" cy="25" r="23.5" stroke="#123652" stroke-width="3"/>
</svg>

