<?xml version="1.0" encoding="iso-8859-1"?>
<svg width="52" height="50" viewBox="0 0 52 50" fill="none" xmlns="http://www.w3.org/2000/svg">
    <title>user_grey</title>
    <circle cx="25" cy="25" r="23.5" stroke="grey" stroke-width="3"/>
    <path d="M20.1608 19.8967V24.0759C19.0504 24.5535 15.5147 26.1624 12.2346 28.4814C11.4456 29.0344 11 29.8577 11 30.7376V34.0621C11 34.3763 11.2995 34.634 11.6648 34.634C12.03 34.634 12.3296 34.3763 12.3296 34.0621V30.7376C12.3296 30.2034 12.6072 29.7006 13.082 29.3612C16.5301 26.9228 20.2704 25.3014 20.979 24.9998C21.2931 24.8678 21.4904 24.5913 21.4904 24.2959V19.6139C21.4904 19.4253 21.3808 19.2431 21.1982 19.1425C20.6722 18.8409 20.3581 18.3381 20.3581 17.7976V12.9397C20.3581 10.8406 22.3378 9.13751 24.7778 9.13751H25.9904C28.4304 9.13751 30.4101 10.8406 30.4101 12.9397V17.7914C30.4101 18.3318 30.096 18.8346 29.57 19.1362C29.3874 19.2431 29.2778 19.4191 29.2778 19.6076V24.2896C29.2778 24.585 29.4824 24.8678 29.7892 24.9935C30.5051 25.2951 34.2381 26.9165 37.6862 29.355C38.161 29.6943 38.4386 30.1971 38.4386 30.7313V34.0621C38.4386 34.3763 38.7381 34.634 39.1034 34.634C39.4687 34.634 39.7682 34.3763 39.7682 34.0621V30.7376C39.7682 29.8577 39.3153 29.0344 38.5336 28.4814C35.2535 26.1624 31.7178 24.5598 30.6074 24.0759V19.8967C31.3233 19.3751 31.7397 18.6083 31.7397 17.7914V12.9397C31.7397 10.2122 29.1609 8 25.9977 8H24.7851C21.6146 8 19.0431 10.2185 19.0431 12.9397V17.7914C19.0285 18.6083 19.4449 19.3751 20.1608 19.8967Z" fill="grey"/>
    <path d="M20.1608 19.8967V24.0759C19.0504 24.5535 15.5147 26.1624 12.2346 28.4814C11.4456 29.0344 11 29.8577 11 30.7376V34.0621C11 34.3763 11.2995 34.634 11.6648 34.634C12.03 34.634 12.3296 34.3763 12.3296 34.0621V30.7376C12.3296 30.2034 12.6072 29.7006 13.082 29.3612C16.5301 26.9228 20.2704 25.3014 20.979 24.9998C21.2931 24.8678 21.4904 24.5913 21.4904 24.2959V19.6139C21.4904 19.4253 21.3808 19.2431 21.1982 19.1425C20.6722 18.8409 20.3581 18.3381 20.3581 17.7976V12.9397C20.3581 10.8406 22.3378 9.13751 24.7778 9.13751H25.9904C28.4304 9.13751 30.4101 10.8406 30.4101 12.9397V17.7914C30.4101 18.3318 30.096 18.8346 29.57 19.1362C29.3874 19.2431 29.2778 19.4191 29.2778 19.6076V24.2896C29.2778 24.585 29.4824 24.8678 29.7892 24.9935C30.5051 25.2951 34.2381 26.9165 37.6862 29.355C38.161 29.6943 38.4386 30.1971 38.4386 30.7313V34.0621C38.4386 34.3763 38.7381 34.634 39.1034 34.634C39.4687 34.634 39.7682 34.3763 39.7682 34.0621V30.7376C39.7682 29.8577 39.3153 29.0344 38.5336 28.4814C35.2535 26.1624 31.7178 24.5598 30.6074 24.0759V19.8967C31.3233 19.3751 31.7397 18.6083 31.7397 17.7914V12.9397C31.7397 10.2122 29.1609 8 25.9977 8H24.7851C21.6146 8 19.0431 10.2185 19.0431 12.9397V17.7914C19.0285 18.6083 19.4449 19.3751 20.1608 19.8967Z" stroke="grey"/>
    <path d="M27.9848 29.3675C27.0351 29.3675 26.1365 29.688 25.4644 30.2662L25.3768 30.3416L25.2891 30.2662C24.617 29.688 23.7185 29.3675 22.7688 29.3675C21.8191 29.3675 20.9279 29.688 20.2558 30.2662C19.5837 30.8444 19.2111 31.6111 19.2111 32.4344C19.2111 33.2514 19.5837 34.0181 20.2558 34.5963L24.9019 38.5933L24.9092 38.5996C25.0334 38.7064 25.2014 38.7692 25.3768 38.7692C25.5521 38.7692 25.7201 38.7064 25.8443 38.5996L30.4905 34.6026C31.1625 34.0244 31.5351 33.2577 31.5351 32.4407C31.5351 31.6237 31.1699 30.8507 30.4905 30.2725C29.8257 29.688 28.9344 29.3675 27.9848 29.3675ZM29.5554 33.7919L25.3768 37.3866L21.1908 33.7856C20.7671 33.4211 20.5334 32.9372 20.5334 32.4281C20.5334 31.9128 20.7671 31.4351 21.1835 31.0706C21.6072 30.7061 22.1625 30.5113 22.7615 30.5113C23.3605 30.5113 23.923 30.7124 24.3467 31.0769L24.9092 31.5608C25.0334 31.6677 25.2014 31.7305 25.3768 31.7305C25.5521 31.7305 25.7201 31.6677 25.8443 31.5608L26.3995 31.0832C26.8232 30.7187 27.3857 30.5176 27.9774 30.5176C28.5765 30.5176 29.1317 30.7187 29.5554 31.0832C29.9791 31.4477 30.2129 31.9316 30.2056 32.4407C30.2129 32.9434 29.9791 33.4274 29.5554 33.7919Z" fill="grey"/>
    <path d="M27.9848 29.3675C27.0351 29.3675 26.1365 29.688 25.4644 30.2662L25.3768 30.3416L25.2891 30.2662C24.617 29.688 23.7185 29.3675 22.7688 29.3675C21.8191 29.3675 20.9279 29.688 20.2558 30.2662C19.5837 30.8444 19.2111 31.6111 19.2111 32.4344C19.2111 33.2514 19.5837 34.0181 20.2558 34.5963L24.9019 38.5933L24.9092 38.5996C25.0334 38.7064 25.2014 38.7692 25.3768 38.7692C25.5521 38.7692 25.7201 38.7064 25.8443 38.5996L30.4905 34.6026C31.1625 34.0244 31.5351 33.2577 31.5351 32.4407C31.5351 31.6237 31.1699 30.8507 30.4905 30.2725C29.8257 29.688 28.9344 29.3675 27.9848 29.3675ZM29.5554 33.7919L25.3768 37.3866L21.1908 33.7856C20.7671 33.4211 20.5334 32.9372 20.5334 32.4281C20.5334 31.9128 20.7671 31.4351 21.1835 31.0706C21.6072 30.7061 22.1625 30.5113 22.7615 30.5113C23.3605 30.5113 23.923 30.7124 24.3467 31.0769L24.9092 31.5608C25.0334 31.6677 25.2014 31.7305 25.3768 31.7305C25.5521 31.7305 25.7201 31.6677 25.8443 31.5608L26.3995 31.0832C26.8232 30.7187 27.3857 30.5176 27.9774 30.5176C28.5765 30.5176 29.1317 30.7187 29.5554 31.0832C29.9791 31.4477 30.2129 31.9316 30.2056 32.4407C30.2129 32.9434 29.9791 33.4274 29.5554 33.7919Z" stroke="grey"/>
</svg>
