<?xml version="1.0" encoding="UTF-8"?>
<svg width="50" height="50" viewBox="0 0 50 50" fill="none" xmlns="http://www.w3.org/2000/svg">
    <title>workout_white</title>
    <circle cx="25" cy="25" r="23.5" stroke="white" stroke-width="3"/>
    <path d="M33.9512 20.8896V13.3335C33.9512 10.3927 31.5585 8 28.6171 8H20.3829C17.4415 8 15.0488 10.3927 15.0488 13.3335V20.8896C13.086 23.1646 12 26.0445 12 29.0366C12 35.9293 17.6073 41.5366 24.5 41.5366C31.3927 41.5366 37 35.9293 37 29.0366C37 26.0445 35.914 23.1646 33.9512 20.8896ZM16.2683 13.3335C16.2683 11.0646 18.114 9.21951 20.3829 9.21951H28.6177C30.886 9.21951 32.7317 11.0646 32.7317 13.3335V19.514V23.05C32.7317 23.5372 32.4841 23.9805 32.0701 24.2366C31.6555 24.4915 31.1488 24.5152 30.714 24.2976L29.8439 23.8622C29.3683 23.6244 29.0732 23.147 29.0732 22.6152V17.4073V14.8659C29.0732 13.7695 28.1817 12.878 27.0854 12.878H21.9146C20.8183 12.878 19.9268 13.7695 19.9268 14.8659V17.4073V22.6152C19.9268 22.7482 19.9085 22.8774 19.8732 23.0012C19.7677 23.3707 19.5122 23.6841 19.1555 23.8622L18.7207 24.0799L18.286 24.2976C18.0683 24.4067 17.8329 24.4549 17.6 24.4445C17.3671 24.4341 17.1366 24.364 16.9299 24.2366C16.5159 23.9805 16.2683 23.5366 16.2683 23.05V19.514V13.3335ZM27.8537 17.0122C25.6476 16.3915 23.3524 16.3915 21.1463 17.0122V14.8659C21.1463 14.4427 21.4909 14.0976 21.9146 14.0976H27.0854C27.5091 14.0976 27.8537 14.4421 27.8537 14.8659V17.0122ZM24.5 40.3171C18.2799 40.3171 13.2195 35.2567 13.2195 29.0366C13.2195 26.8463 13.8604 24.7195 15.0488 22.8982V23.05C15.0488 23.9628 15.5122 24.7939 16.289 25.2738C16.6768 25.5134 17.1085 25.6439 17.5457 25.6634C17.8049 25.675 18.0652 25.6427 18.3201 25.5756C18.4945 25.5299 18.6665 25.4707 18.8329 25.3878L19.7024 24.9524C20.5933 24.5073 21.1476 23.6116 21.1476 22.6146V18.2762C23.3476 17.5854 25.6549 17.5854 27.8549 18.2762V22.6146C27.8549 22.864 27.8896 23.1067 27.9555 23.3378C28.153 24.0311 28.6317 24.6183 29.2994 24.9524L30.1695 25.3878C30.1756 25.3909 30.1823 25.3927 30.1884 25.3957C30.2805 25.4409 30.3738 25.4805 30.4683 25.514C30.5012 25.5256 30.5354 25.5335 30.5689 25.5439C30.6378 25.5652 30.7067 25.5866 30.7768 25.6018C30.8159 25.6104 30.8555 25.6159 30.8945 25.6226C30.9598 25.6341 31.0244 25.6451 31.0896 25.6512C31.1317 25.6555 31.1732 25.6567 31.2152 25.6585C31.2567 25.6604 31.2988 25.6659 31.3402 25.6659C31.3591 25.6659 31.3774 25.6622 31.3963 25.6622C31.461 25.661 31.525 25.6549 31.5896 25.6488C31.639 25.6439 31.6884 25.6402 31.7372 25.6329C31.8049 25.6226 31.8713 25.6067 31.9384 25.5909C31.9829 25.5799 32.028 25.572 32.0726 25.5585C32.147 25.5366 32.2201 25.5079 32.2927 25.4793C32.328 25.4652 32.364 25.4543 32.3988 25.439C32.5055 25.3915 32.611 25.3366 32.7122 25.2738C33.4878 24.7939 33.9512 23.9628 33.9512 23.05V22.8982C35.1396 24.7195 35.7805 26.847 35.7805 29.0366C35.7805 35.2567 30.7201 40.3171 24.5 40.3171Z" fill="white"/>
    <path d="M24.8049 36.6585C24.8043 36.6585 24.8037 36.6585 24.8031 36.6585C22.5067 36.6585 20.2476 35.6128 18.7598 33.8622C18.5415 33.6061 18.1567 33.5744 17.9 33.7927C17.6433 34.0104 17.6122 34.3951 17.8299 34.6518C19.5463 36.672 22.1531 37.878 24.8031 37.878C24.8037 37.878 24.8043 37.878 24.8049 37.878C25.1421 37.878 25.4146 37.6049 25.4146 37.2683C25.4146 36.9311 25.1415 36.6585 24.8049 36.6585Z" fill="white"/>
    <path d="M16.8781 28.7317C16.8781 28.3951 16.6055 28.1219 16.2683 28.1219C15.9317 28.1219 15.6585 28.3945 15.6585 28.7317C15.6585 29.8878 15.8713 31.0146 16.2909 32.0823C16.3854 32.3226 16.6152 32.4689 16.8585 32.4689C16.9329 32.4689 17.0085 32.4555 17.0817 32.4268C17.3951 32.3037 17.5494 31.9494 17.4256 31.636C17.0622 30.711 16.8781 29.7341 16.8781 28.7317Z" fill="white"/>
</svg>

